<svg width="40" height="40" viewBox="0 0 40 40" fill="none" xmlns="http://www.w3.org/2000/svg">
<g clip-path="url(#clip0_7_508)">
<mask id="mask0_7_508" style="mask-type:luminance" maskUnits="userSpaceOnUse" x="0" y="0" width="40" height="40">
<path d="M0 0H40V40H0V0Z" fill="white"/>
</mask>
<g mask="url(#mask0_7_508)">
<path fill-rule="evenodd" clip-rule="evenodd" d="M19.3484 3.66658C19.5193 3.6609 19.6896 3.69036 19.8487 3.75314C20.0078 3.81593 20.1524 3.91069 20.2734 4.03158L22.63 6.38825C25.0523 8.81059 26.4131 12.0959 26.4131 15.5216C26.4131 18.9472 25.0523 22.2326 22.63 24.6549L21.4517 25.8333C16.3984 30.8866 8.15336 30.8016 3.11836 25.7666C2.59392 25.2427 2.28766 24.5395 2.26137 23.7987C2.23507 23.0578 2.49071 22.3346 2.9767 21.7749L18.4484 4.09158C18.5613 3.96288 18.6994 3.85875 18.8542 3.78564C19.0091 3.71254 19.1772 3.67201 19.3484 3.66658ZM19.45 6.74325L4.85836 23.4216C4.79033 23.5039 4.75553 23.6087 4.76077 23.7154C4.76601 23.8221 4.81092 23.923 4.8867 23.9983C8.96336 28.0766 15.625 28.1249 19.685 24.0649L20.8634 22.8883C21.8309 21.9209 22.5985 20.7725 23.1221 19.5085C23.6458 18.2445 23.9153 16.8898 23.9153 15.5216C23.9153 14.1534 23.6458 12.7987 23.1221 11.5347C22.5985 10.2707 21.8309 9.12223 20.8634 8.15492L19.45 6.74325Z" fill="#262522"/>
<path fill-rule="evenodd" clip-rule="evenodd" d="M25.7134 16.055C27.5241 15.8202 29.3645 16.0036 31.0932 16.5913C32.8218 17.179 34.3927 18.1552 35.6851 19.445L36.7734 20.5333C36.8939 20.654 36.9885 20.7981 37.0513 20.9567C37.1141 21.1153 37.1437 21.2851 37.1384 21.4556C37.1331 21.6261 37.0929 21.7937 37.0204 21.9481C36.9479 22.1025 36.8446 22.2404 36.7167 22.3534L19.1034 37.9234C18.5532 38.4094 17.8385 38.6675 17.1047 38.6452C16.3709 38.6229 15.6731 38.3219 15.1534 37.8034C13.7784 36.43 13.0567 35.0434 12.7734 33.51C12.5001 32.0384 12.6501 30.5067 12.8501 28.9184C12.8675 28.753 12.9178 28.5928 12.9979 28.4472C13.078 28.3015 13.1864 28.1733 13.3166 28.07C13.4469 27.9667 13.5965 27.8905 13.7566 27.8457C13.9167 27.801 14.0841 27.7886 14.249 27.8093C14.414 27.83 14.5731 27.8835 14.7172 27.9665C14.8612 28.0494 14.9873 28.1603 15.0879 28.2926C15.1886 28.4249 15.2619 28.576 15.3034 28.7369C15.345 28.8979 15.3541 29.0655 15.3301 29.23C15.1284 30.8317 15.0367 32.0084 15.2301 33.055C15.4134 34.0384 15.8651 34.98 16.9201 36.035C17.0634 36.18 17.2951 36.185 17.4484 36.0517L34.0651 21.36L33.9167 21.2134C32.8939 20.1929 31.6506 19.4207 30.2824 18.9564C28.9142 18.492 27.4577 18.3479 26.0251 18.535C25.8606 18.559 25.6929 18.55 25.532 18.5084C25.371 18.4668 25.22 18.3935 25.0877 18.2929C24.9554 18.1922 24.8445 18.0662 24.7615 17.9221C24.6785 17.7781 24.6251 17.6189 24.6044 17.454C24.5836 17.289 24.596 17.1216 24.6408 16.9615C24.6856 16.8014 24.7618 16.6518 24.8651 16.5216C24.9684 16.3913 25.0966 16.2829 25.2422 16.2028C25.3879 16.1227 25.5481 16.0725 25.7134 16.055Z" fill="#262522"/>
<path fill-rule="evenodd" clip-rule="evenodd" d="M3.32834 24.21C3.56271 23.9759 3.88042 23.8444 4.21167 23.8444C4.54292 23.8444 4.86063 23.9759 5.095 24.21L16.6683 35.7833C16.7911 35.8977 16.8897 36.0357 16.958 36.1891C17.0263 36.3424 17.063 36.5079 17.066 36.6758C17.0689 36.8436 17.0381 37.0103 16.9752 37.166C16.9123 37.3216 16.8188 37.463 16.7001 37.5817C16.5814 37.7004 16.44 37.794 16.2843 37.8568C16.1287 37.9197 15.962 37.9506 15.7941 37.9476C15.6263 37.9447 15.4608 37.9079 15.3074 37.8396C15.1541 37.7713 15.0161 37.6728 14.9017 37.55L3.32834 25.9783C3.09425 25.7439 2.96277 25.4262 2.96277 25.095C2.96277 24.7637 3.09425 24.446 3.32834 24.2116V24.21ZM27.855 2.44163C29.3257 1.76258 30.9693 1.55094 32.564 1.83524C34.1588 2.11955 35.628 2.88612 36.7734 4.03156C37.9188 5.177 38.6854 6.64618 38.9697 8.24093C39.254 9.83568 39.0424 11.4793 38.3633 12.95C39.211 14.3083 39.5736 15.9137 39.392 17.5045C39.2104 19.0952 38.4953 20.5776 37.3633 21.71C37.1277 21.9378 36.812 22.0639 36.4842 22.0612C36.1565 22.0585 35.8429 21.9272 35.611 21.6956C35.3792 21.4639 35.2476 21.1505 35.2446 20.8227C35.2416 20.495 35.3674 20.1792 35.595 19.9433C36.394 19.1447 36.8698 18.0792 36.9314 16.9513C36.9929 15.8233 36.6357 14.7124 35.9283 13.8316C35.7681 13.6328 35.6726 13.3896 35.6547 13.1348C35.6368 12.8801 35.6974 12.6259 35.8283 12.4066C36.4447 11.3709 36.6982 10.1592 36.5488 8.96326C36.3995 7.76728 35.8557 6.65521 35.0036 5.80287C34.1514 4.95052 33.0395 4.40653 31.8435 4.25689C30.6476 4.10725 29.4359 4.36051 28.4 4.97663C28.1805 5.1079 27.9261 5.1687 27.671 5.15082C27.4158 5.13294 27.1724 5.03723 26.9733 4.87663C26.0927 4.16974 24.9821 3.81283 23.8546 3.87434C22.727 3.93586 21.6618 4.41147 20.8633 5.20996C20.6264 5.43076 20.313 5.55096 19.9891 5.54525C19.6653 5.53954 19.3563 5.40835 19.1273 5.17933C18.8983 4.95031 18.7671 4.64133 18.7614 4.3175C18.7557 3.99366 18.8759 3.68025 19.0967 3.44329C20.2287 2.31145 21.7106 1.59632 23.3011 1.41443C24.8915 1.23253 26.4967 1.5946 27.855 2.44163Z" fill="#262522"/>
<path fill-rule="evenodd" clip-rule="evenodd" d="M33.6033 13.1667C33.6033 12.8351 33.4717 12.5172 33.2372 12.2828C33.0028 12.0484 32.6849 11.9167 32.3533 11.9167H29.9967C29.6652 11.9167 29.3472 12.0484 29.1128 12.2828C28.8784 12.5172 28.7467 12.8351 28.7467 13.1667C28.7467 13.4982 28.8784 13.8161 29.1128 14.0505C29.3472 14.285 29.6652 14.4167 29.9967 14.4167H32.3533C32.6849 14.4167 33.0028 14.285 33.2372 14.0505C33.4717 13.8161 33.6033 13.4982 33.6033 13.1667ZM26.39 8.45166C26.39 9.14333 26.95 9.70166 27.64 9.70166H29.9967C30.3282 9.70166 30.6461 9.56996 30.8806 9.33554C31.115 9.10112 31.2467 8.78318 31.2467 8.45166C31.2467 8.12014 31.115 7.8022 30.8806 7.56778C30.6461 7.33336 30.3282 7.20166 29.9967 7.20166H27.64C27.3085 7.20166 26.9906 7.33336 26.7561 7.56778C26.5217 7.8022 26.39 8.12014 26.39 8.45166Z" fill="#262522"/>
</g>
</g>
<defs>
<clipPath id="clip0_7_508">
<rect width="40" height="40" fill="white"/>
</clipPath>
</defs>
</svg>
