<svg width="40" height="40" viewBox="0 0 40 40" fill="none" xmlns="http://www.w3.org/2000/svg">
<g clip-path="url(#clip0_7_490)">
<path fill-rule="evenodd" clip-rule="evenodd" d="M0.416626 16.6666C0.416626 7.69163 7.69163 0.416626 16.6666 0.416626H23.3333C32.3083 0.416626 39.5833 7.69163 39.5833 16.6666C39.5833 17.4402 39.276 18.182 38.729 18.729C38.182 19.276 37.4402 19.5833 36.6666 19.5833H3.33329C2.55974 19.5833 1.81788 19.276 1.2709 18.729C0.723917 18.182 0.416626 17.4402 0.416626 16.6666ZM16.6666 2.91663C13.0199 2.91663 9.52253 4.36528 6.94391 6.94391C4.36528 9.52253 2.91663 13.0199 2.91663 16.6666C2.91663 16.8966 3.10329 17.0833 3.33329 17.0833H36.6666C36.7771 17.0833 36.8831 17.0394 36.9613 16.9613C37.0394 16.8831 37.0833 16.7771 37.0833 16.6666C37.0833 14.861 36.7276 13.073 36.0366 11.4047C35.3456 9.7365 34.3328 8.22071 33.056 6.94391C31.7792 5.6671 30.2634 4.65428 28.5952 3.96328C26.927 3.27228 25.139 2.91663 23.3333 2.91663H16.6666ZM0.416626 33.3333C0.416626 34.9909 1.07511 36.5806 2.24721 37.7527C3.41931 38.9248 5.00902 39.5833 6.66663 39.5833H33.3333C34.9909 39.5833 36.5806 38.9248 37.7527 37.7527C38.9248 36.5806 39.5833 34.9909 39.5833 33.3333V30C39.5833 29.2264 39.276 28.4845 38.729 27.9376C38.182 27.3906 37.4402 27.0833 36.6666 27.0833H17.5C17.1684 27.0833 16.8505 27.215 16.6161 27.4494C16.3817 27.6838 16.25 28.0018 16.25 28.3333C16.25 28.6648 16.3817 28.9828 16.6161 29.2172C16.8505 29.4516 17.1684 29.5833 17.5 29.5833H36.6666C36.7771 29.5833 36.8831 29.6272 36.9613 29.7053C37.0394 29.7835 37.0833 29.8895 37.0833 30V33.3333C37.0833 34.3279 36.6882 35.2817 35.9849 35.9849C35.2817 36.6882 34.3279 37.0833 33.3333 37.0833H6.66663C5.67206 37.0833 4.71824 36.6882 4.01498 35.9849C3.31171 35.2817 2.91663 34.3279 2.91663 33.3333V30C2.91663 29.8895 2.96052 29.7835 3.03867 29.7053C3.11681 29.6272 3.22279 29.5833 3.33329 29.5833H9.99996C10.3315 29.5833 10.6494 29.4516 10.8838 29.2172C11.1183 28.9828 11.25 28.6648 11.25 28.3333C11.25 28.0018 11.1183 27.6838 10.8838 27.4494C10.6494 27.215 10.3315 27.0833 9.99996 27.0833H3.33329C2.55974 27.0833 1.81788 27.3906 1.2709 27.9376C0.723917 28.4845 0.416626 29.2264 0.416626 30V33.3333Z" fill="#262522"/>
<path fill-rule="evenodd" clip-rule="evenodd" d="M0.416626 20.8333C0.416626 19.8387 0.811714 18.8849 1.51498 18.1816C2.21824 17.4783 3.17206 17.0833 4.16663 17.0833H35.8333C36.8279 17.0833 37.7817 17.4783 38.4849 18.1816C39.1882 18.8849 39.5833 19.8387 39.5833 20.8333C39.5833 21.8278 39.1882 22.7816 38.4849 23.4849C37.7817 24.1882 36.8279 24.5833 35.8333 24.5833H4.16663C3.17206 24.5833 2.21824 24.1882 1.51498 23.4849C0.811714 22.7816 0.416626 21.8278 0.416626 20.8333ZM4.16663 19.5833C3.83511 19.5833 3.51716 19.7149 3.28274 19.9494C3.04832 20.1838 2.91663 20.5017 2.91663 20.8333C2.91663 21.1648 3.04832 21.4827 3.28274 21.7171C3.51716 21.9516 3.83511 22.0833 4.16663 22.0833H35.8333C36.1648 22.0833 36.4828 21.9516 36.7172 21.7171C36.9516 21.4827 37.0833 21.1648 37.0833 20.8333C37.0833 20.5017 36.9516 20.1838 36.7172 19.9494C36.4828 19.7149 36.1648 19.5833 35.8333 19.5833H4.16663Z" fill="#262522"/>
<path fill-rule="evenodd" clip-rule="evenodd" d="M4.16663 24.5833C3.83511 24.5833 3.51716 24.715 3.28274 24.9494C3.04832 25.1839 2.91663 25.5018 2.91663 25.8333C2.91663 26.1649 3.04832 26.4828 3.28274 26.7172C3.51716 26.9516 3.83511 27.0833 4.16663 27.0833H9.99996C10.3315 27.0833 10.6494 27.215 10.8838 27.4494C11.1183 27.6839 11.25 28.0018 11.25 28.3333V29.6667C11.25 30.3076 11.5046 30.9223 11.9578 31.3755C12.411 31.8287 13.0257 32.0833 13.6666 32.0833C14.3076 32.0833 14.9223 31.8287 15.3755 31.3755C15.8287 30.9223 16.0833 30.3076 16.0833 29.6667V28.3333C16.0833 28.0018 16.215 27.6839 16.4494 27.4494C16.6838 27.215 17.0018 27.0833 17.3333 27.0833H35.8333C36.1648 27.0833 36.4828 26.9516 36.7172 26.7172C36.9516 26.4828 37.0833 26.1649 37.0833 25.8333C37.0833 25.5018 36.9516 25.1839 36.7172 24.9494C36.4828 24.715 36.1648 24.5833 35.8333 24.5833H4.16663ZM0.416626 25.8333C0.416626 24.8388 0.811714 23.8849 1.51498 23.1817C2.21824 22.4784 3.17206 22.0833 4.16663 22.0833H35.8333C36.8279 22.0833 37.7817 22.4784 38.4849 23.1817C39.1882 23.8849 39.5833 24.8388 39.5833 25.8333C39.5833 26.8279 39.1882 27.7817 38.4849 28.485C37.7817 29.1882 36.8279 29.5833 35.8333 29.5833H18.5833V29.6667C18.5833 30.9706 18.0653 32.2212 17.1432 33.1433C16.2212 34.0653 14.9706 34.5833 13.6666 34.5833C12.3626 34.5833 11.1121 34.0653 10.19 33.1433C9.26796 32.2212 8.74996 30.9706 8.74996 29.6667V29.5833H4.16663C3.17206 29.5833 2.21824 29.1882 1.51498 28.485C0.811714 27.7817 0.416626 26.8279 0.416626 25.8333ZM12.55 9.11667C12.784 9.35104 12.9155 9.66875 12.9155 10C12.9155 10.3312 12.784 10.649 12.55 10.8833L10.8833 12.55C10.6463 12.7708 10.3329 12.891 10.0091 12.8853C9.68525 12.8796 9.37628 12.7484 9.14726 12.5194C8.91823 12.2903 8.78705 11.9814 8.78133 11.6575C8.77562 11.3337 8.89583 11.0203 9.11663 10.7833L10.7833 9.11667C11.0177 8.88258 11.3354 8.7511 11.6666 8.7511C11.9979 8.7511 12.3156 8.88258 12.55 9.11667ZM20.8833 9.11667C21.1174 9.35104 21.2489 9.66875 21.2489 10C21.2489 10.3312 21.1174 10.649 20.8833 10.8833L19.2166 12.55C19.1022 12.6728 18.9642 12.7713 18.8109 12.8396C18.6575 12.908 18.492 12.9447 18.3242 12.9477C18.1563 12.9506 17.9896 12.9197 17.834 12.8569C17.6783 12.794 17.5369 12.7004 17.4182 12.5817C17.2995 12.463 17.206 12.3216 17.1431 12.166C17.0802 12.0103 17.0493 11.8436 17.0523 11.6758C17.0553 11.508 17.092 11.3424 17.1603 11.1891C17.2286 11.0358 17.3271 10.8978 17.45 10.7833L19.1166 9.11667C19.351 8.88258 19.6687 8.7511 20 8.7511C20.3312 8.7511 20.6489 8.88258 20.8833 9.11667ZM29.2166 9.11667C29.4507 9.35104 29.5822 9.66875 29.5822 10C29.5822 10.3312 29.4507 10.649 29.2166 10.8833L27.55 12.55C27.4355 12.6728 27.2975 12.7713 27.1442 12.8396C26.9909 12.908 26.8253 12.9447 26.6575 12.9477C26.4897 12.9506 26.3229 12.9197 26.1673 12.8569C26.0117 12.794 25.8703 12.7004 25.7516 12.5817C25.6329 12.463 25.5393 12.3216 25.4764 12.166C25.4136 12.0103 25.3827 11.8436 25.3856 11.6758C25.3886 11.508 25.4253 11.3424 25.4937 11.1891C25.562 11.0358 25.6605 10.8978 25.7833 10.7833L27.45 9.11667C27.6843 8.88258 28.002 8.7511 28.3333 8.7511C28.6645 8.7511 28.9823 8.88258 29.2166 9.11667Z" fill="#262522"/>
</g>
<defs>
<clipPath id="clip0_7_490">
<rect width="40" height="40" fill="white"/>
</clipPath>
</defs>
</svg>
