<svg width="40" height="40" viewBox="0 0 40 40" fill="none" xmlns="http://www.w3.org/2000/svg">
<path fill-rule="evenodd" clip-rule="evenodd" d="M5.41663 35C5.41663 34.0054 5.81171 33.0516 6.51498 32.3483C7.21824 31.6451 8.17206 31.25 9.16663 31.25H30.8333C31.8279 31.25 32.7817 31.6451 33.4849 32.3483C34.1882 33.0516 34.5833 34.0054 34.5833 35C34.5833 35.9946 34.1882 36.9484 33.4849 37.6516C32.7817 38.3549 31.8279 38.75 30.8333 38.75H9.16663C8.17206 38.75 7.21824 38.3549 6.51498 37.6516C5.81171 36.9484 5.41663 35.9946 5.41663 35ZM9.16663 33.75C8.8351 33.75 8.51716 33.8817 8.28274 34.1161C8.04832 34.3505 7.91663 34.6685 7.91663 35C7.91663 35.3315 8.04832 35.6495 8.28274 35.8839C8.51716 36.1183 8.8351 36.25 9.16663 36.25H30.8333C31.1648 36.25 31.4828 36.1183 31.7172 35.8839C31.9516 35.6495 32.0833 35.3315 32.0833 35C32.0833 34.6685 31.9516 34.3505 31.7172 34.1161C31.4828 33.8817 31.1648 33.75 30.8333 33.75H9.16663Z" fill="#262522"/>
<path fill-rule="evenodd" clip-rule="evenodd" d="M5.41663 30C5.41663 29.0054 5.81171 28.0516 6.51498 27.3483C7.21824 26.6451 8.17206 26.25 9.16663 26.25H30.8333C31.8279 26.25 32.7817 26.6451 33.4849 27.3483C34.1882 28.0516 34.5833 29.0054 34.5833 30C34.5833 30.9946 34.1882 31.9484 33.4849 32.6516C32.7817 33.3549 31.8279 33.75 30.8333 33.75H9.16663C8.17206 33.75 7.21824 33.3549 6.51498 32.6516C5.81171 31.9484 5.41663 30.9946 5.41663 30ZM9.16663 28.75C8.8351 28.75 8.51716 28.8817 8.28274 29.1161C8.04832 29.3505 7.91663 29.6685 7.91663 30C7.91663 30.3315 8.04832 30.6495 8.28274 30.8839C8.51716 31.1183 8.8351 31.25 9.16663 31.25H30.8333C31.1648 31.25 31.4828 31.1183 31.7172 30.8839C31.9516 30.6495 32.0833 30.3315 32.0833 30C32.0833 29.6685 31.9516 29.3505 31.7172 29.1161C31.4828 28.8817 31.1648 28.75 30.8333 28.75H9.16663Z" fill="#262522"/>
<path fill-rule="evenodd" clip-rule="evenodd" d="M5.41663 25C5.41663 24.0054 5.81171 23.0516 6.51498 22.3483C7.21824 21.6451 8.17206 21.25 9.16663 21.25H30.8333C31.8279 21.25 32.7817 21.6451 33.4849 22.3483C34.1882 23.0516 34.5833 24.0054 34.5833 25C34.5833 25.9946 34.1882 26.9484 33.4849 27.6516C32.7817 28.3549 31.8279 28.75 30.8333 28.75H9.16663C8.17206 28.75 7.21824 28.3549 6.51498 27.6516C5.81171 26.9484 5.41663 25.9946 5.41663 25ZM9.16663 23.75C8.8351 23.75 8.51716 23.8817 8.28274 24.1161C8.04832 24.3505 7.91663 24.6685 7.91663 25C7.91663 25.3315 8.04832 25.6495 8.28274 25.8839C8.51716 26.1183 8.8351 26.25 9.16663 26.25H30.8333C31.1648 26.25 31.4828 26.1183 31.7172 25.8839C31.9516 25.6495 32.0833 25.3315 32.0833 25C32.0833 24.6685 31.9516 24.3505 31.7172 24.1161C31.4828 23.8817 31.1648 23.75 30.8333 23.75H9.16663Z" fill="#262522"/>
<path fill-rule="evenodd" clip-rule="evenodd" d="M9.16663 18.75C8.8351 18.75 8.51716 18.8817 8.28274 19.1161C8.04832 19.3505 7.91663 19.6685 7.91663 20C7.91663 20.3315 8.04832 20.6495 8.28274 20.8839C8.51716 21.1183 8.8351 21.25 9.16663 21.25H30.8333C31.1648 21.25 31.4828 21.1183 31.7172 20.8839C31.9516 20.6495 32.0833 20.3315 32.0833 20C32.0833 19.6685 31.9516 19.3505 31.7172 19.1161C31.4828 18.8817 31.1648 18.75 30.8333 18.75H22.5C22.1684 18.75 21.8505 18.6183 21.6161 18.3839C21.3817 18.1495 21.25 17.8315 21.25 17.5C21.25 17.1685 21.3817 16.8505 21.6161 16.6161C21.8505 16.3817 22.1684 16.25 22.5 16.25H30.8333C31.8279 16.25 32.7817 16.6451 33.4849 17.3483C34.1882 18.0516 34.5833 19.0054 34.5833 20C34.5833 20.9946 34.1882 21.9484 33.4849 22.6516C32.7817 23.3549 31.8279 23.75 30.8333 23.75H9.16663C8.17206 23.75 7.21824 23.3549 6.51498 22.6516C5.81171 21.9484 5.41663 20.9946 5.41663 20C5.41663 19.0054 5.81171 18.0516 6.51498 17.3483C7.21824 16.6451 8.17206 16.25 9.16663 16.25H17.5C17.8315 16.25 18.1494 16.3817 18.3838 16.6161C18.6183 16.8505 18.75 17.1685 18.75 17.5C18.75 17.8315 18.6183 18.1495 18.3838 18.3839C18.1494 18.6183 17.8315 18.75 17.5 18.75H9.16663Z" fill="#262522"/>
<path fill-rule="evenodd" clip-rule="evenodd" d="M9.16663 13.75C8.8351 13.75 8.51716 13.8817 8.28274 14.1161C8.04832 14.3505 7.91663 14.6685 7.91663 15C7.91663 15.3315 8.04832 15.6495 8.28274 15.8839C8.51716 16.1183 8.8351 16.25 9.16663 16.25H17.5C17.8315 16.25 18.1494 16.3817 18.3838 16.6161C18.6183 16.8505 18.75 17.1685 18.75 17.5C18.75 17.8315 18.6183 18.1495 18.3838 18.3839C18.1494 18.6183 17.8315 18.75 17.5 18.75H9.16663C8.17206 18.75 7.21824 18.3549 6.51498 17.6516C5.81171 16.9484 5.41663 15.9946 5.41663 15C5.41663 14.0054 5.81171 13.0516 6.51498 12.3483C7.21824 11.6451 8.17206 11.25 9.16663 11.25H17.5C17.8315 11.25 18.1494 11.3817 18.3838 11.6161C18.6183 11.8505 18.75 12.1685 18.75 12.5C18.75 12.8315 18.6183 13.1495 18.3838 13.3839C18.1494 13.6183 17.8315 13.75 17.5 13.75H9.16663ZM21.25 12.5C21.25 12.1685 21.3817 11.8505 21.6161 11.6161C21.8505 11.3817 22.1684 11.25 22.5 11.25H30.8333C31.8279 11.25 32.7817 11.6451 33.4849 12.3483C34.1882 13.0516 34.5833 14.0054 34.5833 15C34.5833 15.9946 34.1882 16.9484 33.4849 17.6516C32.7817 18.3549 31.8279 18.75 30.8333 18.75H22.5C22.1684 18.75 21.8505 18.6183 21.6161 18.3839C21.3817 18.1495 21.25 17.8315 21.25 17.5C21.25 17.1685 21.3817 16.8505 21.6161 16.6161C21.8505 16.3817 22.1684 16.25 22.5 16.25H30.8333C31.1648 16.25 31.4828 16.1183 31.7172 15.8839C31.9516 15.6495 32.0833 15.3315 32.0833 15C32.0833 14.6685 31.9516 14.3505 31.7172 14.1161C31.4828 13.8817 31.1648 13.75 30.8333 13.75H22.5C22.1684 13.75 21.8505 13.6183 21.6161 13.3839C21.3817 13.1495 21.25 12.8315 21.25 12.5Z" fill="#262522"/>
<path fill-rule="evenodd" clip-rule="evenodd" d="M9.16663 8.75C8.8351 8.75 8.51716 8.8817 8.28274 9.11612C8.04832 9.35054 7.91663 9.66848 7.91663 10C7.91663 10.3315 8.04832 10.6495 8.28274 10.8839C8.51716 11.1183 8.8351 11.25 9.16663 11.25H17.5C17.8315 11.25 18.1494 11.3817 18.3838 11.6161C18.6183 11.8505 18.75 12.1685 18.75 12.5C18.75 12.8315 18.6183 13.1495 18.3838 13.3839C18.1494 13.6183 17.8315 13.75 17.5 13.75H9.16663C8.17206 13.75 7.21824 13.3549 6.51498 12.6516C5.81171 11.9484 5.41663 10.9946 5.41663 10C5.41663 9.00544 5.81171 8.05161 6.51498 7.34835C7.21824 6.64509 8.17206 6.25 9.16663 6.25H17.5C17.8315 6.25 18.1494 6.3817 18.3838 6.61612C18.6183 6.85054 18.75 7.16848 18.75 7.5C18.75 7.83152 18.6183 8.14946 18.3838 8.38388C18.1494 8.6183 17.8315 8.75 17.5 8.75H9.16663ZM21.25 7.5C21.25 7.16848 21.3817 6.85054 21.6161 6.61612C21.8505 6.3817 22.1684 6.25 22.5 6.25H30.8333C31.8279 6.25 32.7817 6.64509 33.4849 7.34835C34.1882 8.05161 34.5833 9.00544 34.5833 10C34.5833 10.9946 34.1882 11.9484 33.4849 12.6516C32.7817 13.3549 31.8279 13.75 30.8333 13.75H22.5C22.1684 13.75 21.8505 13.6183 21.6161 13.3839C21.3817 13.1495 21.25 12.8315 21.25 12.5C21.25 12.1685 21.3817 11.8505 21.6161 11.6161C21.8505 11.3817 22.1684 11.25 22.5 11.25H30.8333C31.1648 11.25 31.4828 11.1183 31.7172 10.8839C31.9516 10.6495 32.0833 10.3315 32.0833 10C32.0833 9.66848 31.9516 9.35054 31.7172 9.11612C31.4828 8.8817 31.1648 8.75 30.8333 8.75H22.5C22.1684 8.75 21.8505 8.6183 21.6161 8.38388C21.3817 8.14946 21.25 7.83152 21.25 7.5Z" fill="#262522"/>
<path fill-rule="evenodd" clip-rule="evenodd" d="M12.0833 5C12.0833 4.00544 12.4783 3.05161 13.1816 2.34835C13.8849 1.64509 14.8387 1.25 15.8333 1.25H24.1666C25.1611 1.25 26.115 1.64509 26.8182 2.34835C27.5215 3.05161 27.9166 4.00544 27.9166 5C27.9166 5.99456 27.5215 6.94839 26.8182 7.65165C26.115 8.35491 25.1611 8.75 24.1666 8.75H23.7499V16.6667C23.7499 17.6612 23.3548 18.6151 22.6516 19.3183C21.9483 20.0216 20.9945 20.4167 19.9999 20.4167C19.0054 20.4167 18.0515 20.0216 17.3483 19.3183C16.645 18.6151 16.2499 17.6612 16.2499 16.6667V8.75H15.8333C14.8387 8.75 13.8849 8.35491 13.1816 7.65165C12.4783 6.94839 12.0833 5.99456 12.0833 5ZM15.8333 3.75C15.5017 3.75 15.1838 3.8817 14.9494 4.11612C14.7149 4.35054 14.5833 4.66848 14.5833 5C14.5833 5.33152 14.7149 5.64946 14.9494 5.88388C15.1838 6.1183 15.5017 6.25 15.8333 6.25H17.4999C17.8314 6.25 18.1494 6.3817 18.3838 6.61612C18.6182 6.85054 18.7499 7.16848 18.7499 7.5V16.6667C18.7499 16.9982 18.8816 17.3161 19.116 17.5505C19.3505 17.785 19.6684 17.9167 19.9999 17.9167C20.3314 17.9167 20.6494 17.785 20.8838 17.5505C21.1182 17.3161 21.2499 16.9982 21.2499 16.6667V7.5C21.2499 7.16848 21.3816 6.85054 21.616 6.61612C21.8505 6.3817 22.1684 6.25 22.4999 6.25H24.1666C24.4981 6.25 24.816 6.1183 25.0505 5.88388C25.2849 5.64946 25.4166 5.33152 25.4166 5C25.4166 4.66848 25.2849 4.35054 25.0505 4.11612C24.816 3.8817 24.4981 3.75 24.1666 3.75H15.8333Z" fill="#262522"/>
</svg>
