<svg width="40" height="40" viewBox="0 0 40 40" fill="none" xmlns="http://www.w3.org/2000/svg">
<path fill-rule="evenodd" clip-rule="evenodd" d="M8.89671 7.65831C6.09837 9.47664 4.58337 11.8416 4.58337 14.2716C4.58337 16.7 6.10004 19.065 8.89671 20.8833C11.68 22.6933 15.6034 23.855 20 23.855C24.3967 23.855 28.3184 22.6933 31.1034 20.8833C33.9017 19.065 35.4167 16.7 35.4167 14.2716C35.4167 11.8416 33.9 9.47664 31.1034 7.65831C28.32 5.84998 24.3967 4.68831 20 4.68831C15.6034 4.68831 11.6817 5.84831 8.89671 7.65831ZM7.53337 5.56165C10.78 3.45165 15.1917 2.18665 20 2.18665C24.8084 2.18665 29.22 3.45331 32.4667 5.56165C35.7 7.66498 37.9167 10.7166 37.9167 14.2716C37.9167 17.825 35.7 20.8766 32.4667 22.9783C29.22 25.09 24.8084 26.3533 20 26.3533C15.1917 26.3533 10.78 25.09 7.53337 22.98C4.30004 20.8766 2.08337 17.825 2.08337 14.27C2.08337 10.7166 4.30004 7.66498 7.53337 5.56165Z" fill="#262522"/>
<path fill-rule="evenodd" clip-rule="evenodd" d="M3.24162 12.8166C3.57199 12.7923 3.89851 12.9001 4.14945 13.1163C4.40039 13.3326 4.55523 13.6396 4.57995 13.97L5.13829 21.5116C5.41384 25.2648 7.09924 28.7748 9.85599 31.3365C12.6127 33.8983 16.2367 35.3222 20 35.3222C23.7632 35.3222 27.3872 33.8983 30.1439 31.3365C32.9007 28.7748 34.5861 25.2648 34.8616 21.5116L35.42 13.97C35.4443 13.6393 35.5989 13.3319 35.8499 13.1153C36.1009 12.8987 36.4277 12.7906 36.7583 12.815C37.0889 12.8393 37.3964 12.9939 37.613 13.2449C37.8296 13.4959 37.9376 13.8226 37.9133 14.1533L37.355 21.6966C37.0333 26.0796 35.0652 30.1785 31.846 33.1702C28.6267 36.1619 24.3947 37.8247 20 37.8247C15.6052 37.8247 11.3732 36.1619 8.15395 33.1702C4.93468 30.1785 2.96659 26.0796 2.64495 21.6966L2.08662 14.155C2.07458 13.9912 2.0949 13.8268 2.14643 13.6709C2.19796 13.515 2.27968 13.3708 2.38693 13.2466C2.49418 13.1223 2.62487 13.0204 2.77151 12.9466C2.91816 12.8728 3.0779 12.8287 3.24162 12.8166Z" fill="#262522"/>
<path fill-rule="evenodd" clip-rule="evenodd" d="M11.6666 9.58331C11.3351 9.58331 11.0172 9.715 10.7827 9.94943C10.5483 10.1838 10.4166 10.5018 10.4166 10.8333C10.4166 11.1648 10.5483 11.4828 10.7827 11.7172C11.0172 11.9516 11.3351 12.0833 11.6666 12.0833C11.9981 12.0833 12.3161 11.9516 12.5505 11.7172C12.7849 11.4828 12.9166 11.1648 12.9166 10.8333C12.9166 10.5018 12.7849 10.1838 12.5505 9.94943C12.3161 9.715 11.9981 9.58331 11.6666 9.58331ZM7.91662 10.8333C7.91662 10.3409 8.01362 9.85322 8.20207 9.39825C8.39053 8.94328 8.66675 8.52988 9.01497 8.18166C9.36319 7.83344 9.77659 7.55722 10.2316 7.36876C10.6865 7.18031 11.1742 7.08331 11.6666 7.08331C12.1591 7.08331 12.6467 7.18031 13.1017 7.36876C13.5567 7.55722 13.9701 7.83344 14.3183 8.18166C14.6665 8.52988 14.9427 8.94328 15.1312 9.39825C15.3196 9.85322 15.4166 10.3409 15.4166 10.8333C15.4166 11.8279 15.0215 12.7817 14.3183 13.485C13.615 14.1882 12.6612 14.5833 11.6666 14.5833C10.6721 14.5833 9.71823 14.1882 9.01497 13.485C8.31171 12.7817 7.91662 11.8279 7.91662 10.8333ZM30.8333 12.9166C30.5018 12.9166 30.1838 13.0483 29.9494 13.2828C29.715 13.5172 29.5833 13.8351 29.5833 14.1666C29.5833 14.4982 29.715 14.8161 29.9494 15.0505C30.1838 15.2849 30.5018 15.4166 30.8333 15.4166C31.1648 15.4166 31.4827 15.2849 31.7172 15.0505C31.9516 14.8161 32.0833 14.4982 32.0833 14.1666C32.0833 13.8351 31.9516 13.5172 31.7172 13.2828C31.4827 13.0483 31.1648 12.9166 30.8333 12.9166ZM27.0833 14.1666C27.0833 13.1721 27.4784 12.2183 28.1816 11.515C28.8849 10.8117 29.8387 10.4166 30.8333 10.4166C31.8278 10.4166 32.7817 10.8117 33.4849 11.515C34.1882 12.2183 34.5833 13.1721 34.5833 14.1666C34.5833 15.1612 34.1882 16.115 33.4849 16.8183C32.7817 17.5216 31.8278 17.9166 30.8333 17.9166C29.8387 17.9166 28.8849 17.5216 28.1816 16.8183C27.4784 16.115 27.0833 15.1612 27.0833 14.1666ZM23.2766 8.15664C22.7366 8.33664 22.09 8.76498 21.5316 9.44998C20.9733 10.1333 20.6833 10.8533 20.6166 11.42C20.5483 12.0033 20.72 12.2416 20.8083 12.315C20.8983 12.3866 21.165 12.5066 21.7216 12.3216C22.2633 12.1433 22.91 11.715 23.4683 11.03C24.0266 10.3466 24.3166 9.62498 24.3833 9.05831C24.4516 8.47498 24.28 8.23831 24.1916 8.16498C24.1016 8.09331 23.835 7.97331 23.2766 8.15664ZM22.4916 5.78498C23.5333 5.43998 24.7916 5.42831 25.7716 6.22831C26.7516 7.02831 26.995 8.26164 26.8666 9.35164C26.7366 10.4583 26.2183 11.6133 25.4066 12.61C24.5933 13.605 23.5666 14.345 22.5083 14.695C21.4666 15.04 20.2083 15.0516 19.2283 14.2516C18.2483 13.4516 18.005 12.2183 18.1333 11.1283C18.2633 10.0216 18.7816 8.86664 19.5933 7.86998C20.4066 6.87331 21.4333 6.13498 22.4916 5.78498ZM15.7883 13.75C15.9941 13.75 16.1967 13.8008 16.3781 13.8979C16.5595 13.995 16.7141 14.1354 16.8283 14.3066L20.1616 19.3066C20.2871 19.4949 20.3592 19.7137 20.3701 19.9396C20.381 20.1656 20.3304 20.3903 20.2236 20.5898C20.1169 20.7892 19.958 20.956 19.7639 21.0723C19.5699 21.1885 19.3479 21.25 19.1216 21.25H12.455C12.2287 21.25 12.0067 21.1885 11.8126 21.0723C11.6186 20.956 11.4597 20.7892 11.3529 20.5898C11.2462 20.3903 11.1956 20.1656 11.2065 19.9396C11.2174 19.7137 11.2895 19.4949 11.415 19.3066L14.7483 14.3066C14.8624 14.1354 15.0171 13.995 15.1985 13.8979C15.3799 13.8008 15.5825 13.75 15.7883 13.75ZM14.79 18.75H16.785L15.7883 17.2533L14.79 18.75ZM23.2883 17.0833C23.6198 17.0833 23.9377 17.215 24.1722 17.4494C24.4066 17.6838 24.5383 18.0018 24.5383 18.3333V21.6666C24.5383 21.9982 24.4066 22.3161 24.1722 22.5505C23.9377 22.7849 23.6198 22.9166 23.2883 22.9166C22.9568 22.9166 22.6388 22.7849 22.4044 22.5505C22.17 22.3161 22.0383 21.9982 22.0383 21.6666V18.3333C22.0383 18.0018 22.17 17.6838 22.4044 17.4494C22.6388 17.215 22.9568 17.0833 23.2883 17.0833ZM26.6216 16.25C26.9531 16.25 27.2711 16.3817 27.5055 16.6161C27.7399 16.8505 27.8716 17.1685 27.8716 17.5V20.8333C27.8716 21.1648 27.7399 21.4828 27.5055 21.7172C27.2711 21.9516 26.9531 22.0833 26.6216 22.0833C26.2901 22.0833 25.9722 21.9516 25.7377 21.7172C25.5033 21.4828 25.3716 21.1648 25.3716 20.8333V17.5C25.3716 17.1685 25.5033 16.8505 25.7377 16.6161C25.9722 16.3817 26.2901 16.25 26.6216 16.25ZM6.56995 14.95C6.68604 14.8338 6.82387 14.7417 6.97558 14.6788C7.12729 14.6159 7.2899 14.5836 7.45412 14.5836C7.61834 14.5836 7.78095 14.6159 7.93266 14.6788C8.08437 14.7417 8.2222 14.8338 8.33829 14.95L10.8383 17.45C10.9611 17.5644 11.0596 17.7024 11.1279 17.8557C11.1962 18.0091 11.233 18.1746 11.2359 18.3424C11.2389 18.5103 11.208 18.677 11.1452 18.8326C11.0823 18.9883 10.9887 19.1297 10.87 19.2484C10.7513 19.3671 10.6099 19.4606 10.4543 19.5235C10.2986 19.5864 10.1319 19.6173 9.96408 19.6143C9.79625 19.6113 9.63072 19.5746 9.47739 19.5063C9.32406 19.438 9.18606 19.3395 9.07162 19.2166L6.57162 16.7166C6.33754 16.4823 6.20605 16.1646 6.20605 15.8333C6.20605 15.5021 6.33754 15.1844 6.57162 14.95H6.56995Z" fill="#262522"/>
</svg>
