<svg width="40" height="40" viewBox="0 0 40 40" fill="none" xmlns="http://www.w3.org/2000/svg">
<path fill-rule="evenodd" clip-rule="evenodd" d="M20 3.75C11.025 3.75 3.75 11.025 3.75 20C3.75 28.975 11.025 36.25 20 36.25C28.975 36.25 36.25 28.975 36.25 20C36.25 11.025 28.975 3.75 20 3.75ZM1.25 20C1.25 9.645 9.645 1.25 20 1.25C30.355 1.25 38.75 9.645 38.75 20C38.75 30.355 30.355 38.75 20 38.75C9.645 38.75 1.25 30.355 1.25 20Z" fill="#262522"/>
<path fill-rule="evenodd" clip-rule="evenodd" d="M2.91663 4.16669C2.91663 3.83517 3.04832 3.51722 3.28274 3.2828C3.51716 3.04838 3.83511 2.91669 4.16663 2.91669H12.5C12.8315 2.91669 13.1494 3.04838 13.3838 3.2828C13.6183 3.51722 13.75 3.83517 13.75 4.16669C13.75 4.49821 13.6183 4.81615 13.3838 5.05057C13.1494 5.28499 12.8315 5.41669 12.5 5.41669H5.41663V12.5C5.41663 12.8315 5.28493 13.1495 5.05051 13.3839C4.81609 13.6183 4.49815 13.75 4.16663 13.75C3.83511 13.75 3.51716 13.6183 3.28274 13.3839C3.04832 13.1495 2.91663 12.8315 2.91663 12.5V4.16669ZM26.25 4.16669C26.25 3.83517 26.3817 3.51722 26.6161 3.2828C26.8505 3.04838 27.1684 2.91669 27.5 2.91669H35.8333C36.1648 2.91669 36.4828 3.04838 36.7172 3.2828C36.9516 3.51722 37.0833 3.83517 37.0833 4.16669V12.5C37.0833 12.8315 36.9516 13.1495 36.7172 13.3839C36.4828 13.6183 36.1648 13.75 35.8333 13.75C35.5018 13.75 35.1838 13.6183 34.9494 13.3839C34.715 13.1495 34.5833 12.8315 34.5833 12.5V5.41669H27.5C27.1684 5.41669 26.8505 5.28499 26.6161 5.05057C26.3817 4.81615 26.25 4.49821 26.25 4.16669ZM4.16663 26.25C4.49815 26.25 4.81609 26.3817 5.05051 26.6161C5.28493 26.8506 5.41663 27.1685 5.41663 27.5V34.5834H11.6666C11.9981 34.5834 12.3161 34.715 12.5505 34.9495C12.7849 35.1839 12.9166 35.5018 12.9166 35.8334C12.9166 36.1649 12.7849 36.4828 12.5505 36.7172C12.3161 36.9517 11.9981 37.0834 11.6666 37.0834H4.16663C3.83511 37.0834 3.51716 36.9517 3.28274 36.7172C3.04832 36.4828 2.91663 36.1649 2.91663 35.8334V27.5C2.91663 27.1685 3.04832 26.8506 3.28274 26.6161C3.51716 26.3817 3.83511 26.25 4.16663 26.25ZM35.8333 26.25C36.1648 26.25 36.4828 26.3817 36.7172 26.6161C36.9516 26.8506 37.0833 27.1685 37.0833 27.5V35.8334C37.0833 36.1649 36.9516 36.4828 36.7172 36.7172C36.4828 36.9517 36.1648 37.0834 35.8333 37.0834H27.5C27.1684 37.0834 26.8505 36.9517 26.6161 36.7172C26.3817 36.4828 26.25 36.1649 26.25 35.8334C26.25 35.5018 26.3817 35.1839 26.6161 34.9495C26.8505 34.715 27.1684 34.5834 27.5 34.5834H34.5833V27.5C34.5833 27.1685 34.715 26.8506 34.9494 26.6161C35.1838 26.3817 35.5018 26.25 35.8333 26.25ZM11.2216 12.96C11.3697 12.6634 11.6296 12.4378 11.944 12.3328C12.2584 12.2278 12.6017 12.252 12.8983 12.4L16.1316 14.0167C17.286 14.5945 18.2816 15.4459 19.0316 16.4967L23 22.05C23.515 22.7684 24.1966 23.35 24.9866 23.7467L28.22 25.3634C28.371 25.4342 28.5064 25.5345 28.6181 25.6585C28.7298 25.7824 28.8155 25.9275 28.8703 26.0851C28.925 26.2427 28.9476 26.4097 28.9368 26.5762C28.926 26.7427 28.882 26.9053 28.8073 27.0545C28.7327 27.2038 28.6289 27.3365 28.5021 27.445C28.3753 27.5534 28.2281 27.6354 28.0691 27.6861C27.9102 27.7368 27.7427 27.7552 27.5765 27.7401C27.4103 27.725 27.2489 27.6768 27.1016 27.5984L23.8683 25.9817C22.7135 25.4045 21.7173 24.5537 20.9666 23.5034L17 17.95C16.4861 17.2308 15.804 16.6483 15.0133 16.2534L11.78 14.6367C11.4837 14.4883 11.2584 14.2283 11.1537 13.9139C11.049 13.5995 11.0734 13.2564 11.2216 12.96ZM17.1133 9.42335C17.1868 9.27643 17.2885 9.14542 17.4126 9.03783C17.5367 8.93024 17.6809 8.84817 17.8367 8.79631C17.9926 8.74446 18.1572 8.72384 18.321 8.73563C18.4849 8.74742 18.6448 8.79139 18.7916 8.86502L21.7683 10.3534C23.1158 11.0265 24.2432 12.0701 25.0183 13.3617L26.555 15.925C27.085 16.8084 27.855 17.5217 28.7766 17.9834L31.755 19.4717C32.0394 19.6266 32.2526 19.8858 32.3496 20.1948C32.4467 20.5038 32.42 20.8384 32.2752 21.1281C32.1305 21.4178 31.879 21.64 31.5736 21.748C31.2683 21.8559 30.9329 21.8411 30.6383 21.7067L27.66 20.2184C26.3125 19.5452 25.185 18.5016 24.41 17.21L22.8733 14.6484C22.3435 13.765 21.5728 13.0509 20.6516 12.59L17.6733 11.1017C17.5264 11.0282 17.3954 10.9265 17.2878 10.8024C17.1802 10.6782 17.0981 10.5341 17.0463 10.3782C16.9944 10.2224 16.9738 10.0578 16.9856 9.89396C16.9974 9.73011 17.0413 9.5702 17.115 9.42335H17.1133ZM7.68663 18.8517C7.83501 18.5554 8.09497 18.3301 8.40938 18.2254C8.72378 18.1207 9.06689 18.1452 9.36329 18.2934L12.3416 19.7817C13.6879 20.4554 14.8141 21.499 15.5883 22.79L17.1266 25.3534C17.6566 26.2367 18.4266 26.95 19.3483 27.41L22.3266 28.9C22.4794 28.9697 22.6165 29.0694 22.7299 29.1932C22.8432 29.3171 22.9305 29.4625 22.9864 29.6207C23.0424 29.779 23.0659 29.9469 23.0555 30.1145C23.0451 30.2821 23.0011 30.4458 22.9261 30.596C22.851 30.7462 22.7465 30.8797 22.6188 30.9886C22.491 31.0975 22.3426 31.1795 22.1825 31.2299C22.0223 31.2802 21.8536 31.2977 21.6866 31.2814C21.5195 31.2651 21.3574 31.2153 21.21 31.135L18.2316 29.6467C16.8842 28.9735 15.7567 27.9299 14.9816 26.6384L13.445 24.075C12.9149 23.1922 12.1443 22.4788 11.2233 22.0184L8.24496 20.5284C7.94866 20.38 7.7234 20.12 7.61871 19.8056C7.51401 19.4912 7.53844 19.1481 7.68663 18.8517Z" fill="#262522"/>
</svg>
