<svg width="37" height="38" viewBox="0 0 37 38" fill="none" xmlns="http://www.w3.org/2000/svg">
<path d="M0 16.5C0 7.66344 7.16344 0.5 16 0.5H21C29.8366 0.5 37 7.66344 37 16.5V21.5C37 30.3366 29.8366 37.5 21 37.5H16C7.16344 37.5 0 30.3366 0 21.5V16.5Z" fill="#262522" fill-opacity="0.08"/>
<path d="M23.6267 22.5129L27 25.8861L25.8861 27L22.5129 23.6267C21.3 24.5971 19.7618 25.1776 18.0888 25.1776C14.1758 25.1776 11 22.0018 11 18.0888C11 14.1758 14.1758 11 18.0888 11C22.0018 11 25.1776 14.1758 25.1776 18.0888C25.1776 19.7618 24.5971 21.3 23.6267 22.5129ZM22.0465 21.9284C23.0096 20.9358 23.6023 19.5819 23.6023 18.0888C23.6023 15.0426 21.135 12.5753 18.0888 12.5753C15.0426 12.5753 12.5753 15.0426 12.5753 18.0888C12.5753 21.135 15.0426 23.6023 18.0888 23.6023C19.5819 23.6023 20.9358 23.0096 21.9284 22.0465L22.0465 21.9284Z" fill="#262522"/>
</svg>
